# xmcd CD database file
#
# Track frame offsets:
#	150
#	13619
#	26234
#	39455
#	52688
#	67123
#	79736
#	91593
#	104041
#	118065
#	130999
#	141491
#	154764
#	168121
#	192043
#	202575
#	215036
#	227669
#	241535
#	255025
#	267800
#
# Disc length: 3743 seconds
#
# Revision: 3
# Processed by: cddbd v1.4PL0 Copyright (c) Steve Scherf et al.
# Submitted via: CDex 1.50Beta7
#
DISCID=0f0e9d15
DTITLE=Various Artist - Harmonika Show Hungarian Accordion 1940-1950
DYEAR=2002
DGENRE=Jazz
TTITLE0=Valse Musette
TTITLE1=Akkordeon Brillant
TTITLE2=Kann den Liebe sünde sein
TTITLE3=Poljuska
TTITLE4=Für eine Nacht voller Seligkeit
TTITLE5=Tampico
TTITLE6=La sorella di pippo
TTITLE7=Oi Mari
TTITLE8=Bravúr
TTITLE9=Harmonika polka
TTITLE10=Flick-Flack
TTITLE11=Valse
TTITLE12=Tanzende Harmonika
TTITLE13=II. Magyar rapszódia
TTITLE14=Jodel im Texas
TTITLE15=After You've Gone
TTITLE16=I Got Rhythm
TTITLE17=Some of These Days
TTITLE18=Deepsy Doodle
TTITLE19=Tiger Rag
TTITLE20=Bûvös hegedû
EXTD=YEAR: 2002
EXTT0=
EXTT1=
EXTT2=
EXTT3=
EXTT4=
EXTT5=
EXTT6=
EXTT7=
EXTT8=
EXTT9=
EXTT10=
EXTT11=
EXTT12=
EXTT13=
EXTT14=
EXTT15=
EXTT16=
EXTT17=
EXTT18=
EXTT19=
EXTT20=
PLAYORDER=
